<svg width="32" height="32" viewBox="0 0 32 32" fill="none" xmlns="http://www.w3.org/2000/svg">
<path d="M27.0827 3.33329H23.916V1.74996C23.916 1.33003 23.7492 0.927306 23.4523 0.630373C23.1553 0.333441 22.7526 0.166626 22.3327 0.166626C21.9128 0.166626 21.51 0.333441 21.2131 0.630373C20.9162 0.927306 20.7493 1.33003 20.7493 1.74996V3.33329H11.2493V1.74996C11.2493 1.33003 11.0825 0.927306 10.7856 0.630373C10.4887 0.333441 10.0859 0.166626 9.66602 0.166626C9.24609 0.166626 8.84336 0.333441 8.54643 0.630373C8.2495 0.927306 8.08268 1.33003 8.08268 1.74996V3.33329H4.91602C3.65624 3.33329 2.44806 3.83374 1.55726 4.72454C0.666461 5.61533 0.166016 6.82351 0.166016 8.08329V27.0833C0.166016 28.3431 0.666461 29.5513 1.55726 30.442C2.44806 31.3328 3.65624 31.8333 4.91602 31.8333H27.0827C28.3425 31.8333 29.5506 31.3328 30.4414 30.442C31.3322 29.5513 31.8327 28.3431 31.8327 27.0833V8.08329C31.8327 6.82351 31.3322 5.61533 30.4414 4.72454C29.5506 3.83374 28.3425 3.33329 27.0827 3.33329ZM28.666 27.0833C28.666 27.5032 28.4992 27.9059 28.2023 28.2029C27.9053 28.4998 27.5026 28.6666 27.0827 28.6666H4.91602C4.49609 28.6666 4.09336 28.4998 3.79643 28.2029C3.4995 27.9059 3.33268 27.5032 3.33268 27.0833V16H28.666V27.0833ZM28.666 12.8333H3.33268V8.08329C3.33268 7.66337 3.4995 7.26064 3.79643 6.96371C4.09336 6.66677 4.49609 6.49996 4.91602 6.49996H8.08268V8.08329C8.08268 8.50322 8.2495 8.90594 8.54643 9.20288C8.84336 9.49981 9.24609 9.66663 9.66602 9.66663C10.0859 9.66663 10.4887 9.49981 10.7856 9.20288C11.0825 8.90594 11.2493 8.50322 11.2493 8.08329V6.49996H20.7493V8.08329C20.7493 8.50322 20.9162 8.90594 21.2131 9.20288C21.51 9.49981 21.9128 9.66663 22.3327 9.66663C22.7526 9.66663 23.1553 9.49981 23.4523 9.20288C23.7492 8.90594 23.916 8.50322 23.916 8.08329V6.49996H27.0827C27.5026 6.49996 27.9053 6.66677 28.2023 6.96371C28.4992 7.26064 28.666 7.66337 28.666 8.08329V12.8333Z" fill="black"/>
</svg>
